<svg width="21" height="17" viewBox="0 0 21 17" fill="none" xmlns="http://www.w3.org/2000/svg">
    <path d="M10.1549 2.864C7.31691 2.864 4.47902 2.86422 1.64101 2.86353C1.44753 2.86353 1.25221 2.87369 1.0613 2.85054C0.415421 2.77231 -0.017806 2.28781 0.00160315 1.68286C0.020524 1.09774 0.460588 0.651599 1.08693 0.587009C1.18276 0.577137 1.28029 0.580707 1.37685 0.580707C7.21413 0.580326 13.0514 0.579746 18.8886 0.582065C19.0805 0.582172 19.2777 0.58942 19.4635 0.632145C19.9885 0.753086 20.3297 1.18703 20.3349 1.70871C20.3401 2.2304 20.0059 2.67508 19.4846 2.80078C19.2842 2.84909 19.0702 2.85714 18.8624 2.85733C15.96 2.86072 13.0575 2.85965 10.1549 2.85965V2.864Z" fill="#6E7C7C"/>
    <path d="M10.1164 9.64144C8.29471 9.64144 6.47318 9.64095 4.65164 9.64175C4.16385 9.64205 3.7645 9.47201 3.52579 9.02885C3.31766 8.64245 3.33829 8.25034 3.57767 7.88187C3.85452 7.45586 4.2789 7.35691 4.75522 7.35758C7.49576 7.36155 10.2361 7.35952 12.9765 7.35932C13.8631 7.35923 14.7497 7.35536 15.6363 7.35894C16.4202 7.36224 16.9325 7.80363 16.9454 8.47697C16.9588 9.16915 16.4425 9.63393 15.6294 9.63653C13.7917 9.64245 11.954 9.63836 10.1164 9.63836V9.64144Z" fill="#6E7C7C"/>
    <path d="M10.1884 14.1383C11.2525 14.1382 12.3165 14.134 13.3806 14.1397C14.1633 14.1439 14.6781 14.5904 14.6907 15.26C14.7033 15.9275 14.1856 16.4109 13.4129 16.4142C11.2527 16.4237 9.09235 16.4204 6.9322 16.421C6.45002 16.4211 6.04279 16.2682 5.79639 15.8239C5.58271 15.4383 5.59717 15.0478 5.82764 14.6762C6.08356 14.2635 6.48585 14.1367 6.94807 14.1377C8.0282 14.1399 9.10834 14.1383 10.1884 14.1383Z" fill="#6E7C7C"/>
</svg>
