<svg width="153" height="132" viewBox="0 0 153 132" fill="none" xmlns="http://www.w3.org/2000/svg">
    <path fill-rule="evenodd" clip-rule="evenodd" d="M99.6756 104.532H45.6589C41.857 104.532 38.7449 101.411 38.7449 97.5962V20.5658C38.7449 16.7511 41.857 13.6313 45.6589 13.6313H99.6756C103.479 13.6313 106.591 16.7511 106.591 20.5658V97.5962C106.591 101.411 103.479 104.532 99.6756 104.532Z" fill="#DADDDD"/>
    <path fill-rule="evenodd" clip-rule="evenodd" d="M95.0647 107.826H41.0481C37.2461 107.826 34.134 104.705 34.134 100.89V23.8598C34.134 20.045 37.2461 16.9253 41.0481 16.9253H95.0647C98.8682 16.9253 101.98 20.045 101.98 23.8598V100.89C101.98 104.705 98.8682 107.826 95.0647 107.826Z" fill="#E4E4E4"/>
    <path fill-rule="evenodd" clip-rule="evenodd" d="M90.5793 110.426H36.4511C32.6412 110.426 29.5227 107.317 29.5227 103.519V26.8071C29.5227 23.0082 32.6412 19.9014 36.4511 19.9014H90.5793C94.3907 19.9014 97.5092 23.0082 97.5092 26.8071V103.519C97.5092 107.317 94.3907 110.426 90.5793 110.426Z" fill="#D6D6D6"/>
    <g filter="url(#filter0_d_20912_999)">
        <path fill-rule="evenodd" clip-rule="evenodd" d="M90.5793 110.426H36.4511C32.6412 110.426 29.5227 107.317 29.5227 103.519V26.8071C29.5227 23.0082 32.6412 19.9014 36.4511 19.9014H90.5793C94.3907 19.9014 97.5092 23.0082 97.5092 26.8071V103.519C97.5092 107.317 94.3907 110.426 90.5793 110.426Z" fill="url(#paint0_linear_20912_999)"/>
    </g>
    <path fill-rule="evenodd" clip-rule="evenodd" d="M82.7776 43.273H42.7973C41.6555 43.273 40.7209 42.3839 40.7209 41.2976C40.7209 40.2099 41.6555 39.3208 42.7973 39.3208H82.7776C83.9194 39.3208 84.854 40.2099 84.854 41.2976C84.854 42.3839 83.9194 43.273 82.7776 43.273Z" fill="#DADDDD"/>
    <path fill-rule="evenodd" clip-rule="evenodd" d="M82.7776 55.1299H42.7973C41.6555 55.1299 40.7209 54.2408 40.7209 53.1546C40.7209 52.0669 41.6555 51.1777 42.7973 51.1777H82.7776C83.9194 51.1777 84.854 52.0669 84.854 53.1546C84.854 54.2408 83.9194 55.1299 82.7776 55.1299Z" fill="#DADDDD"/>
    <path fill-rule="evenodd" clip-rule="evenodd" d="M82.7776 66.9864H42.7973C41.6555 66.9864 40.7209 66.0973 40.7209 65.011C40.7209 63.9248 41.6555 63.0342 42.7973 63.0342H82.7776C83.9194 63.0342 84.854 63.9248 84.854 65.011C84.854 66.0973 83.9194 66.9864 82.7776 66.9864Z" fill="#DADDDD"/>
    <path fill-rule="evenodd" clip-rule="evenodd" d="M82.7776 78.8433H42.7973C41.6555 78.8433 40.7209 77.9542 40.7209 76.868C40.7209 75.7802 41.6555 74.8911 42.7973 74.8911H82.7776C83.9194 74.8911 84.854 75.7802 84.854 76.868C84.854 77.9542 83.9194 78.8433 82.7776 78.8433Z" fill="#DADDDD"/>
    <path fill-rule="evenodd" clip-rule="evenodd" d="M63.6664 90.6998H42.8062C41.6595 90.6998 40.7209 89.8106 40.7209 88.7244C40.7209 87.6367 41.6595 86.7476 42.8062 86.7476H63.6664C64.813 86.7476 65.7516 87.6367 65.7516 88.7244C65.7516 89.8106 64.813 90.6998 63.6664 90.6998Z" fill="#DADDDD"/>
    <path fill-rule="evenodd" clip-rule="evenodd" d="M0.891113 89.6843C2.75102 89.0968 5.59984 86.7941 6.25953 84.3159C6.8578 86.5054 9.36511 89.0968 11.628 89.2935C9.08133 90.2059 6.6465 92.9206 6.25953 95.0528C5.99664 92.8795 2.62817 90.0005 0.891113 89.6843Z" fill="#E4E4E4"/>
    <path fill-rule="evenodd" clip-rule="evenodd" d="M129.929 14.1777C129.929 16.9502 127.682 19.1976 124.911 19.1976C122.138 19.1976 119.891 16.9502 119.891 14.1777C119.891 11.4052 122.138 9.15771 124.911 9.15771C127.682 9.15771 129.929 11.4052 129.929 14.1777Z" fill="#F1F1F1"/>
    <path fill-rule="evenodd" clip-rule="evenodd" d="M105.771 75.3761C97.7766 83.3692 85.4002 84.2709 76.415 78.0997C75.2667 77.2968 74.1738 76.3951 73.1545 75.3761C72.6299 74.8531 72.1353 74.3134 71.6693 73.7453C70.7373 72.6106 69.9209 71.4005 69.252 70.1501C68.0736 68.0383 67.2723 65.7974 66.8347 63.4811C65.4233 56.2171 67.5338 48.3983 73.1545 42.7802C78.7887 37.1453 86.6089 35.0485 93.8741 36.4463C96.1891 36.8972 98.4321 37.6984 100.544 38.8632C101.797 39.547 102.99 40.3633 104.127 41.2952C104.693 41.7594 105.233 42.2555 105.756 42.7802C106.777 43.7992 107.692 44.8903 108.48 46.0401C114.654 55.0221 113.75 67.398 105.771 75.3761Z" fill="white" fill-opacity="0.1"/>
    <path fill-rule="evenodd" clip-rule="evenodd" d="M103.534 73.8014C95.2169 82.1202 81.7382 82.1186 73.4195 73.8014C65.1117 65.4936 65.1117 52.0134 73.4304 43.6962C81.7382 35.3883 95.2169 35.3883 103.525 43.6962C111.842 52.0134 111.842 65.4936 103.534 73.8014ZM107.803 39.4234C97.1268 28.7476 79.827 28.7476 69.1512 39.4234C58.477 50.0976 58.4677 67.4083 69.1419 78.0841C78.8582 87.7973 94.0872 88.6732 104.799 80.6981C105.845 79.9181 106.852 79.0437 107.813 78.0841C108.773 77.123 109.647 76.1155 110.426 75.0692C118.401 64.3563 117.517 49.1381 107.803 39.4234Z" fill="#DADDDD"/>
    <path fill-rule="evenodd" clip-rule="evenodd" d="M149.817 118.327L149.368 118.775C146.403 121.742 141.548 121.742 138.581 118.775L111.202 91.3963L122.438 80.1606L149.817 107.539C152.783 110.506 152.783 115.36 149.817 118.327Z" fill="url(#paint1_linear_20912_999)"/>
    <path fill-rule="evenodd" clip-rule="evenodd" d="M111.016 74.2319L119.106 82.3225L113.363 88.0647L105.274 79.9741C106.341 79.1782 107.368 78.2859 108.35 77.3068C109.329 76.3276 110.222 75.2995 111.016 74.2319Z" fill="#DADDDD"/>
    <path fill-rule="evenodd" clip-rule="evenodd" d="M149.407 107.202L138.243 118.365L136.233 116.354L147.396 105.191L149.407 107.202Z" fill="#00A887"/>
    <path fill-rule="evenodd" clip-rule="evenodd" d="M123.059 80.5467L111.589 92.0168L109.885 90.3129L121.355 78.8428L123.059 80.5467Z" fill="url(#paint2_linear_20912_999)"/>
    <path fill-rule="evenodd" clip-rule="evenodd" d="M98.0281 40.8354L69.8992 68.9629C68.8399 67.0643 68.1196 65.0497 67.7278 62.9673L92.0322 38.6626C94.1132 39.0694 96.1294 39.7882 98.0281 40.8354Z" fill="white" fill-opacity="0.5"/>
    <path fill-rule="evenodd" clip-rule="evenodd" d="M107.25 47.521L76.8394 76.2085C75.7504 75.4916 74.7138 74.6847 73.7472 73.7728C73.2496 73.3033 72.779 72.8219 72.3386 72.3134L103.119 43.2734C103.658 43.6904 104.17 44.1343 104.666 44.6038C105.633 45.5157 106.503 46.4921 107.25 47.521Z" fill="white" fill-opacity="0.5"/>
    <path d="M12.5227 2V4.68421" stroke="#DADDDD" stroke-width="2.921" stroke-linecap="round"/>
    <path d="M4.46997 10.0527H7.15418" stroke="#DADDDD" stroke-width="2.921" stroke-linecap="round"/>
    <path d="M12.5227 17.2106V14.5264" stroke="#DADDDD" stroke-width="2.921" stroke-linecap="round"/>
    <path d="M19.6805 10.0527H16.9963" stroke="#DADDDD" stroke-width="2.921" stroke-linecap="round"/>
    <defs>
        <filter id="filter0_d_20912_999" x="14.5227" y="10.9014" width="97.9866" height="120.524" filterUnits="userSpaceOnUse" color-interpolation-filters="sRGB">
            <feFlood flood-opacity="0" result="BackgroundImageFix"/>
            <feColorMatrix in="SourceAlpha" type="matrix" values="0 0 0 0 0 0 0 0 0 0 0 0 0 0 0 0 0 0 127 0" result="hardAlpha"/>
            <feOffset dy="6"/>
            <feGaussianBlur stdDeviation="7.5"/>
            <feComposite in2="hardAlpha" operator="out"/>
            <feColorMatrix type="matrix" values="0 0 0 0 0.426172 0 0 0 0 0.426172 0 0 0 0 0.426172 0 0 0 0.25 0"/>
            <feBlend mode="normal" in2="BackgroundImageFix" result="effect1_dropShadow_20912_999"/>
            <feBlend mode="normal" in="SourceGraphic" in2="effect1_dropShadow_20912_999" result="shape"/>
        </filter>
        <linearGradient id="paint0_linear_20912_999" x1="31.8903" y1="109.354" x2="26.3179" y2="26.7955" gradientUnits="userSpaceOnUse">
            <stop stop-color="#F5F5F5"/>
            <stop offset="1" stop-color="#FCFDFF"/>
        </linearGradient>
        <linearGradient id="paint1_linear_20912_999" x1="131.622" y1="59.7409" x2="90.7824" y2="100.58" gradientUnits="userSpaceOnUse">
            <stop stop-color="#99DCCF"/>
            <stop offset="1" stop-color="#00A887"/>
        </linearGradient>
        <linearGradient id="paint2_linear_20912_999" x1="116.472" y1="72.2558" x2="103.298" y2="85.4298" gradientUnits="userSpaceOnUse">
            <stop stop-color="#06524C"/>
            <stop offset="1" stop-color="#00A887"/>
        </linearGradient>
    </defs>
</svg>
