<svg  viewBox="0 0 20 18" xmlns="http://www.w3.org/2000/svg">
<path fill-rule="evenodd" clip-rule="evenodd" d="M1.02541 6.4914C0.624023 7.42504 0.624023 8.48107 0.624023 10.5931V11.9719C0.624023 14.763 0.624023 16.1585 1.49125 17.026C2.33775 17.8728 3.6879 17.8926 6.3483 17.8936C6.41334 17.8936 6.47907 17.8936 6.54569 17.8936H13.4543C13.5209 17.8936 13.5867 17.8936 13.6517 17.8936C16.3121 17.8926 17.6622 17.8728 18.5088 17.026C19.376 16.1585 19.376 14.763 19.376 11.9719V10.5931C19.376 8.48107 19.376 7.42504 18.9746 6.4914C18.916 6.3552 18.8511 6.22194 18.7805 6.09168C18.2966 5.1975 17.4676 4.54317 15.8097 3.23447C13.1743 1.154 11.8565 0.113758 10.3295 0.0111122C10.11 -0.00370407 9.88995 -0.00370407 9.67046 0.0111122C8.14346 0.113758 6.82569 1.154 4.19025 3.23447C2.53238 4.54317 1.70345 5.1975 1.21955 6.09168C1.14888 6.22194 1.08404 6.3552 1.02541 6.4914ZM13.6517 17.8936C13.6517 17.4139 13.5572 16.9392 13.3738 16.4961C13.1902 16.0529 12.9213 15.6502 12.5821 15.3107C12.243 14.9722 11.8405 14.7028 11.3974 14.5192C10.9544 14.3356 10.4796 14.2419 10 14.2419C9.52044 14.2419 9.04562 14.3356 8.60258 14.5192C8.15955 14.7028 7.75697 14.9722 7.41786 15.3107C7.07874 15.6502 6.8098 16.0529 6.62623 16.4961C6.44275 16.9392 6.3483 17.4139 6.3483 17.8936H7.73003C7.73003 17.5955 7.78875 17.3004 7.90284 17.025C8.01693 16.7497 8.18412 16.499 8.39493 16.2878C8.60564 16.0776 8.85593 15.9098 9.13129 15.7963C9.40675 15.6818 9.70194 15.6236 10 15.6236C10.2981 15.6236 10.5933 15.6818 10.8687 15.7963C11.1441 15.9098 11.3944 16.0776 11.6051 16.2878C11.8159 16.499 11.9831 16.7497 12.0972 17.025C12.2113 17.3004 12.27 17.5955 12.27 17.8936H13.6517Z"/>
</svg>
