<svg  viewBox="0 0 21 20" xmlns="http://www.w3.org/2000/svg">
<path fill-rule="evenodd" clip-rule="evenodd" d="M20.5613 9.33983L17.6333 6.42383C17.3393 6.13183 16.8653 6.13183 16.5733 6.42583C16.2813 6.71983 16.2823 7.19383 16.5753 7.48583L18.2153 9.11983H15.2803C15.2903 9.61983 15.2903 10.1198 15.2803 10.6198H18.2173L16.5753 12.2558C16.2823 12.5478 16.2813 13.0228 16.5733 13.3168C16.7193 13.4638 16.9123 13.5368 17.1043 13.5368C17.2953 13.5368 17.4873 13.4638 17.6333 13.3188L20.5613 10.4018C20.7033 10.2618 20.7823 10.0698 20.7823 9.87083C20.7823 9.67183 20.7033 9.48083 20.5613 9.33983Z"/>
<path fill-rule="evenodd" clip-rule="evenodd" d="M7.03 9.87C7.03 9.46 7.36 9.12 7.78 9.12L15.2803 9.11983C15.2703 7.85983 15.2 6.6 15.1 5.34V5.33C14.73 1.3 12.9 0 7.6 0C0 0 0 2.85 0 9.75C0 16.65 0 19.5 7.6 19.5C12.9 19.5 14.73 18.2 15.1 14.16C15.2 12.99 15.2603 11.8098 15.2803 10.6198L7.78 10.62C7.36 10.62 7.03 10.29 7.03 9.87Z"/>
</svg>
